<?xml version="1.0" encoding="UTF-8" standalone="no"?>
<!-- Generator: Adobe Illustrator 18.0.0, SVG Export Plug-In . SVG Version: 6.00 Build 0)  -->

<svg
   xmlns:dc="http://purl.org/dc/elements/1.1/"
   xmlns:cc="http://creativecommons.org/ns#"
   xmlns:rdf="http://www.w3.org/1999/02/22-rdf-syntax-ns#"
   xmlns:svg="http://www.w3.org/2000/svg"
   xmlns="http://www.w3.org/2000/svg"
   xmlns:sodipodi="http://sodipodi.sourceforge.net/DTD/sodipodi-0.dtd"
   xmlns:inkscape="http://www.inkscape.org/namespaces/inkscape"
   version="1.1"
   id="Capa_1"
   x="0px"
   y="0px"
   viewBox="0 0 250 214.72599"
   xml:space="preserve"
   sodipodi:docname="bowl.svg"
   width="250"
   height="214.72598"
   inkscape:version="0.92.2 5c3e80d, 2017-08-06"><metadata
     id="metadata39"><rdf:RDF><cc:Work
         rdf:about=""><dc:format>image/svg+xml</dc:format><dc:type
           rdf:resource="http://purl.org/dc/dcmitype/StillImage" /><dc:title /></cc:Work></rdf:RDF></metadata><defs
     id="defs37"><filter
       inkscape:label="Dripping"
       height="2"
       width="1.3"
       y="-0.5"
       x="-0.15000001"
       inkscape:menu="Protrusions"
       inkscape:menu-tooltip="Random paint streaks downwards"
       style="color-interpolation-filters:sRGB"
       id="filter1052"><feConvolveMatrix
         order="3 3"
         kernelMatrix="0 -1 0 0 -1 0 0 2 0"
         result="result1"
         divisor="6.03"
         id="feConvolveMatrix1030" /><feTurbulence
         numOctaves="1"
         baseFrequency="0.078 0.010"
         result="result0"
         id="feTurbulence1032" /><feColorMatrix
         result="result2"
         values="1 0 0 0 0 0 1 0 0 0 0 0 1 0 0 0 0 0 10 -3.5"
         id="feColorMatrix1034" /><feComposite
         in2="result2"
         in="result1"
         operator="in"
         id="feComposite1036" /><feMorphology
         operator="dilate"
         radius="1 30"
         id="feMorphology1038" /><feColorMatrix
         values="1 0 0 0 0 0 1 0 0 0 0 0 1 0 0 0 0 0 50 0"
         result="result3"
         id="feColorMatrix1040" /><feOffset
         dx="0"
         dy="1.4"
         result="result4"
         id="feOffset1042" /><feTurbulence
         numOctaves="2"
         baseFrequency="0.032 0.025"
         result="result8"
         id="feTurbulence1044" /><feColorMatrix
         values="0 0 0 0 0.52 0 -0.4 0 0 0.45 0 0 1 0 0 0 0 0 1 0"
         result="result91"
         id="feColorMatrix1046" /><feDisplacementMap
         in="result4"
         xChannelSelector="R"
         yChannelSelector="G"
         scale="100"
         result="result9"
         in2="result91"
         id="feDisplacementMap1048" /><feComposite
         in="SourceGraphic"
         in2="result9"
         id="feComposite1050" /></filter></defs><sodipodi:namedview
     pagecolor="#ffffff"
     bordercolor="#666666"
     borderopacity="1"
     objecttolerance="10"
     gridtolerance="10"
     guidetolerance="10"
     inkscape:pageopacity="1"
     inkscape:pageshadow="2"
     inkscape:window-width="1348"
     inkscape:window-height="876"
     id="namedview35"
     showgrid="false"
     inkscape:zoom="1.4142136"
     inkscape:cx="120.49425"
     inkscape:cy="69.447373"
     inkscape:window-x="104"
     inkscape:window-y="20"
     inkscape:window-maximized="0"
     inkscape:current-layer="Capa_1"
     fit-margin-top="0"
     fit-margin-left="10"
     fit-margin-right="0"
     fit-margin-bottom="0" /><path
     d="M 118.08591,85.965556 C 69.590538,65.611055 16.56597,53.747698 9.0494926,70.458585 l -0.237043,0.527002 C -14.56823,122.96632 10.18777,183.62864 63.99862,206.21415 117.80578,228.79812 180.6039,204.88406 203.9846,152.90334 l 0.23705,-0.527 C 211.73444,135.6639 166.5776,106.31852 118.08591,85.965556 Z m -3.20327,7.121623 c 55.06784,23.113101 85.32848,48.720681 81.96664,56.194831 -3.36183,7.47414 -43.38558,3.58193 -98.457095,-19.53272 C 43.328032,106.63774 13.065303,81.025046 16.421852,73.552915 19.783689,66.078777 59.81112,69.972532 114.88264,93.087179 Z"
     id="path2"
     inkscape:connector-curvature="0"
     sodipodi:nodetypes="ssssccsssscs"
     style="fill:#282c34;fill-opacity:1;stroke-width:3.95016313" /><path
     style="fill:#784421;fill-opacity:1;stroke:none;stroke-width:3.95016313px;stroke-linecap:butt;stroke-linejoin:miter;stroke-opacity:1"
     d="m 140.66353,144.89805 c 17.08665,-18.82891 60.73134,-59.481942 98.63955,-86.560768 2.35141,-1.679671 7.48974,-0.940317 8.75501,0.549287 1.75457,2.06568 3.16988,8.187856 0.30452,10.116571 -44.71798,30.100419 -69.69572,59.06884 -91.69865,80.26542 -7.0953,-1.93606 -5.49119,-1.30174 -16.00043,-4.37051 z"
     id="path854"
     inkscape:connector-curvature="0"
     sodipodi:nodetypes="cssscc" /><g
     id="g4"
     transform="translate(-3.8215554,173.04186)" /><g
     id="g6"
     transform="translate(-3.8215554,173.04186)" /><g
     id="g8"
     transform="translate(-3.8215554,173.04186)" /><g
     id="g10"
     transform="translate(-3.8215554,173.04186)" /><g
     id="g12"
     transform="translate(-3.8215554,173.04186)" /><g
     id="g14"
     transform="translate(-3.8215554,173.04186)" /><g
     id="g16"
     transform="translate(-3.8215554,173.04186)" /><g
     id="g18"
     transform="translate(-3.8215554,173.04186)" /><g
     id="g20"
     transform="translate(-3.8215554,173.04186)" /><g
     id="g22"
     transform="translate(-3.8215554,173.04186)" /><g
     id="g24"
     transform="translate(-3.8215554,173.04186)" /><g
     id="g26"
     transform="translate(-3.8215554,173.04186)" /><g
     id="g28"
     transform="translate(-3.8215554,173.04186)" /><g
     id="g30"
     transform="translate(-3.8215554,173.04186)" /><g
     id="g32"
     transform="translate(-3.8215554,173.04186)" /><path
     style="opacity:1;fill:#ffffff;fill-opacity:1;stroke:none;stroke-width:5.32443476;stroke-miterlimit:4;stroke-dasharray:none;stroke-opacity:1"
     id="path848"
     sodipodi:type="arc"
     sodipodi:cx="239.4218"
     sodipodi:cy="64.524933"
     sodipodi:rx="3.5143249"
     sodipodi:ry="2.5368063"
     sodipodi:start="0"
     sodipodi:end="6.2829061"
     d="m 242.93612,64.524933 a 3.5143249,2.5368063 0 0 1 -3.51408,2.536806 3.5143249,2.5368063 0 0 1 -3.51457,-2.536452 3.5143249,2.5368063 0 0 1 3.51359,-2.53716 3.5143249,2.5368063 0 0 1 3.51506,2.536098 l -3.51432,7.08e-4 z" /><path
     style="opacity:1;fill:#ffb380;fill-opacity:1;stroke:none;stroke-width:0.12532885;stroke-miterlimit:4;stroke-dasharray:none;stroke-opacity:1"
     d="M 127.15456,140.19766 C 85.377546,126.07551 45.022806,105.05564 25.768485,87.387963 19.610236,81.737179 17.002646,78.153419 16.917588,75.22366 c -0.05798,-1.997128 0.190859,-2.342589 2.485889,-3.451077 5.071497,-2.449502 21.335178,-1.259703 38.782339,2.837201 16.267732,3.819945 43.580494,12.745855 50.030564,16.350162 1.50676,0.841975 4.51933,2.084925 6.69459,2.762108 5.64417,1.757081 30.43022,13.696726 40.797,19.652236 l 8.78843,5.04879 -1.45626,1.73252 c -0.80093,0.95288 -6.04682,6.71562 -11.65753,12.80609 -6.686,7.2577 -10.6407,11.08078 -11.47645,11.0945 -0.70134,0.0116 -6.43956,-1.72482 -12.7516,-3.85853 z"
     id="path860"
     inkscape:connector-curvature="0" /><path
     style="opacity:1;fill:#ffb380;fill-opacity:1;stroke:none;stroke-width:0.03172752;stroke-miterlimit:4;stroke-dasharray:none;stroke-opacity:1;filter:url(#filter1052)"
     d="m 24.288786,24.445081 c -3.673742,-0.674937 -13.87821,-3.470302 -16.213352,-1.858835 3.649219,-3.942569 3.57174,-8.289884 3.48772,-2.648921 -0.05534,2.240984 -1.305669,0.154923 -0.0013,0.136069 1.077108,-0.01557 -0.337384,0.78209 0.03479,0.02931 -0.314888,-0.119206 -1.8835338,0.21927 -1.6907538,-1.023094 0.2759488,-1.778347 0.4196538,-5.468721 0.7042038,-7.393161 0.335399,-1.535372 1.606484,-1.052412 1.895345,-0.304454 0.206061,0.465834 -0.327081,1.510266 -0.134293,2.399101 0.224701,1.035965 0.756698,1.517862 0.922371,3.099408 0.622348,5.941048 3.528352,6.177016 5.802715,7.415566 1.34842,0.07413 7.69049,1.47 4.371211,0.572826 -1.982997,-0.535987 2.334274,0.101022 0.821373,-0.42381 z"
     id="path862"
     inkscape:connector-curvature="0"
     sodipodi:nodetypes="cccscsccsscscc"
     transform="matrix(4.0190997,0,0,3.8824085,-15.359212,-13.319432)" /><path
     style="opacity:1;fill:#ffffff;fill-opacity:1;stroke:none;stroke-width:0.06266444;stroke-miterlimit:4;stroke-dasharray:none;stroke-opacity:1"
     d="M 100.59251,129.9983 C 92.180411,126.8704 75.742581,108.13238 63.068493,101.7858 48.855515,94.668626 48.076732,77.566488 45.578741,72.280822 c 0,0 21.275723,4.286903 33.858604,8.297054 13.001325,4.143515 26.146345,9.37896 27.948605,10.261171 1.76804,0.865466 4.87045,2.160813 6.89423,2.878548 6.37212,2.259882 28.07328,12.656055 39.21315,18.785475 l 12.45858,6.81411 -2.52229,1.78739 c -1.55458,1.10164 -4.88916,5.24938 -6.2235,6.65785 l -16.54259,17.13563 z"
     id="path870"
     inkscape:connector-curvature="0"
     sodipodi:nodetypes="sscsssscsccs" /><g
     id="g999"
     style="fill:#61dafb"
     transform="matrix(0.12216347,0.04889271,-0.06200627,0.12146205,60.041555,116.3795)"><path
       id="path995"
       d="m 666.3,296.5 c 0,-32.5 -40.7,-63.3 -103.1,-82.4 14.4,-63.6 8,-114.2 -20.2,-130.4 -6.5,-3.8 -14.1,-5.6 -22.4,-5.6 v 22.3 c 4.6,0 8.3,0.9 11.4,2.6 13.6,7.8 19.5,37.5 14.9,75.7 -1.1,9.4 -2.9,19.3 -5.1,29.4 -19.6,-4.8 -41,-8.5 -63.5,-10.9 -13.5,-18.5 -27.5,-35.3 -41.6,-50 32.6,-30.3 63.2,-46.9 84,-46.9 V 78 C 493.2,78 457.2,97.6 420.8,131.6 384.4,97.8 348.4,78.4 320.9,78.4 v 22.3 c 20.7,0 51.4,16.5 84,46.6 -14,14.7 -28,31.4 -41.3,49.9 -22.6,2.4 -44,6.1 -63.6,11 -2.3,-10 -4,-19.7 -5.2,-29 -4.7,-38.2 1.1,-67.9 14.6,-75.8 3,-1.8 6.9,-2.6 11.5,-2.6 V 78.5 c -8.4,0 -16,1.8 -22.6,5.6 -28.1,16.2 -34.4,66.7 -19.9,130.1 -62.2,19.2 -102.7,49.9 -102.7,82.3 0,32.5 40.7,63.3 103.1,82.4 -14.4,63.6 -8,114.2 20.2,130.4 6.5,3.8 14.1,5.6 22.5,5.6 27.5,0 63.5,-19.6 99.9,-53.6 36.4,33.8 72.4,53.2 99.9,53.2 8.4,0 16,-1.8 22.6,-5.6 28.1,-16.2 34.4,-66.7 19.9,-130.1 62,-19.1 102.5,-49.9 102.5,-82.3 z M 536.1,229.8 c -3.7,12.9 -8.3,26.2 -13.5,39.5 -4.1,-8 -8.4,-16 -13.1,-24 -4.6,-8 -9.5,-15.8 -14.4,-23.4 14.2,2.1 27.9,4.7 41,7.9 z m -45.8,106.5 c -7.8,13.5 -15.8,26.3 -24.1,38.2 -14.9,1.3 -30,2 -45.2,2 -15.1,0 -30.2,-0.7 -45,-1.9 -8.3,-11.9 -16.4,-24.6 -24.2,-38 -7.6,-13.1 -14.5,-26.4 -20.8,-39.8 6.2,-13.4 13.2,-26.8 20.7,-39.9 7.8,-13.5 15.8,-26.3 24.1,-38.2 14.9,-1.3 30,-2 45.2,-2 15.1,0 30.2,0.7 45,1.9 8.3,11.9 16.4,24.6 24.2,38 7.6,13.1 14.5,26.4 20.8,39.8 -6.3,13.4 -13.2,26.8 -20.7,39.9 z m 32.3,-13 c 5.4,13.4 10,26.8 13.8,39.8 -13.1,3.2 -26.9,5.9 -41.2,8 4.9,-7.7 9.8,-15.6 14.4,-23.7 4.6,-8 8.9,-16.1 13,-24.1 z M 421.2,430 c -9.3,-9.6 -18.6,-20.3 -27.8,-32 9,0.4 18.2,0.7 27.5,0.7 9.4,0 18.7,-0.2 27.8,-0.7 -9,11.7 -18.3,22.4 -27.5,32 z m -74.4,-58.9 c -14.2,-2.1 -27.9,-4.7 -41,-7.9 3.7,-12.9 8.3,-26.2 13.5,-39.5 4.1,8 8.4,16 13.1,24 4.7,8 9.5,15.8 14.4,23.4 z M 420.7,163 c 9.3,9.6 18.6,20.3 27.8,32 -9,-0.4 -18.2,-0.7 -27.5,-0.7 -9.4,0 -18.7,0.2 -27.8,0.7 9,-11.7 18.3,-22.4 27.5,-32 z m -74,58.9 c -4.9,7.7 -9.8,15.6 -14.4,23.7 -4.6,8 -8.9,16 -13,24 -5.4,-13.4 -10,-26.8 -13.8,-39.8 13.1,-3.1 26.9,-5.8 41.2,-7.9 z m -90.5,125.2 c -35.4,-15.1 -58.3,-34.9 -58.3,-50.6 0,-15.7 22.9,-35.6 58.3,-50.6 8.6,-3.7 18,-7 27.7,-10.1 5.7,19.6 13.2,40 22.5,60.9 -9.2,20.8 -16.6,41.1 -22.2,60.6 -9.9,-3.1 -19.3,-6.5 -28,-10.2 z M 310,490 c -13.6,-7.8 -19.5,-37.5 -14.9,-75.7 1.1,-9.4 2.9,-19.3 5.1,-29.4 19.6,4.8 41,8.5 63.5,10.9 13.5,18.5 27.5,35.3 41.6,50 -32.6,30.3 -63.2,46.9 -84,46.9 -4.5,-0.1 -8.3,-1 -11.3,-2.7 z m 237.2,-76.2 c 4.7,38.2 -1.1,67.9 -14.6,75.8 -3,1.8 -6.9,2.6 -11.5,2.6 -20.7,0 -51.4,-16.5 -84,-46.6 14,-14.7 28,-31.4 41.3,-49.9 22.6,-2.4 44,-6.1 63.6,-11 2.3,10.1 4.1,19.8 5.2,29.1 z m 38.5,-66.7 c -8.6,3.7 -18,7 -27.7,10.1 -5.7,-19.6 -13.2,-40 -22.5,-60.9 9.2,-20.8 16.6,-41.1 22.2,-60.6 9.9,3.1 19.3,6.5 28.1,10.2 35.4,15.1 58.3,34.9 58.3,50.6 -0.1,15.7 -23,35.6 -58.4,50.6 z"
       inkscape:connector-curvature="0" /><circle
       id="circle997"
       r="45.700001"
       cy="296.5"
       cx="420.89999" /></g><path
     style="opacity:1;fill:#ffffff;fill-opacity:1;stroke:none;stroke-width:1.90818608;stroke-miterlimit:4;stroke-dasharray:none;stroke-opacity:1"
     d="m 177.23026,151.96888 c -3.11127,-0.29161 -8.52064,-1.04346 -12.02082,-1.67078 -3.50018,-0.62732 -6.67818,-1.14159 -7.06222,-1.14284 -0.38405,-0.001 4.05379,-4.76225 9.86186,-10.58002 l 10.56013,-10.57776 3.21961,2.55952 c 9.51583,7.56489 15.42779,14.93035 14.60746,18.19882 -0.73368,2.92321 -8.45237,4.2172 -19.16602,3.21306 z"
     id="path847"
     inkscape:connector-curvature="0" /><path
     style="opacity:1;fill:#ffb380;fill-opacity:1;stroke:none;stroke-width:0.59113103;stroke-miterlimit:4;stroke-dasharray:none;stroke-opacity:1"
     d="m 17.096762,74.369601 c -0.241925,-1.968702 2.827473,-12.834165 0.749668,-21.741935 -0.776854,-3.330454 0.555005,-3.887031 2.217286,-4.706707 2.626859,-1.295314 5.120652,0.40552 5.573324,3.801151 0.433729,3.25352 0.311703,9.059364 -0.3008,14.311959 -0.226524,1.942562 -0.376164,2.537426 -0.730535,2.904065 -0.245114,0.253598 -0.828344,1.35038 -1.296069,2.437293 -0.467726,1.086914 -1.109918,2.269273 -1.427099,2.62747 -0.516893,0.583733 -0.722054,0.655215 -1.97857,0.689381 -0.771034,0.02097 -1.705383,0.06023 -2.076334,0.08726 -0.566973,0.04132 -0.683446,-0.02401 -0.730871,-0.40994 z"
     id="path45"
     inkscape:connector-curvature="0"
     sodipodi:nodetypes="csssccsccccc" /><path
     sodipodi:nodetypes="csssc"
     inkscape:connector-curvature="0"
     id="path877"
     d="m 19.879578,47.087591 c 0,0 -0.146817,-3.45415 -0.912489,-4.260205 -0.596676,-0.628149 -2.234449,-0.376783 -2.854255,0.18945 -0.350237,0.31997 0.818406,1.89601 1.37585,2.079658 2.438359,0.803307 2.390894,1.991089 2.390894,1.991089 z"
     style="opacity:1;fill:#ffb380;fill-opacity:1;stroke:none;stroke-width:0.02188676;stroke-miterlimit:4;stroke-dasharray:none;stroke-opacity:1" /><path
     style="opacity:1;fill:#ffb380;fill-opacity:1;stroke:none;stroke-width:0.16203831;stroke-miterlimit:4;stroke-dasharray:none;stroke-opacity:1"
     id="path879"
     sodipodi:type="arc"
     sodipodi:cx="36.355339"
     sodipodi:cy="28.994341"
     sodipodi:rx="1"
     sodipodi:ry="1"
     sodipodi:start="0"
     sodipodi:end="6.2829061"
     d="m 37.355339,28.994341 a 1,1 0 0 1 -0.99993,1 1,1 0 0 1 -1.00007,-0.99986 1,1 0 0 1 0.999791,-1.00014 1,1 0 0 1 1.000209,0.999721 l -1,2.79e-4 z" /><path
     d="m 15.96536,53.035973 a 1,1 0 0 1 -0.999931,1 1,1 0 0 1 -1.000069,-0.999861 1,1 0 0 1 0.99979,-1.000139 1,1 0 0 1 1.00021,0.99972 l -1,2.8e-4 z"
     sodipodi:end="6.2829061"
     sodipodi:start="0"
     sodipodi:ry="1"
     sodipodi:rx="1"
     sodipodi:cy="53.035973"
     sodipodi:cx="14.96536"
     sodipodi:type="arc"
     id="path881"
     style="opacity:1;fill:#ffb380;fill-opacity:1;stroke:none;stroke-width:0.16203831;stroke-miterlimit:4;stroke-dasharray:none;stroke-opacity:1" /><path
     d="m 51.497475,79.729248 a 1,1 0 0 1 -0.999931,1 1,1 0 0 1 -1.000069,-0.99986 1,1 0 0 1 0.99979,-1.00014 1,1 0 0 1 1.00021,0.999721 l -1,2.79e-4 z"
     sodipodi:end="6.2829061"
     sodipodi:start="0"
     sodipodi:ry="1"
     sodipodi:rx="1"
     sodipodi:cy="79.729248"
     sodipodi:cx="50.497475"
     sodipodi:type="arc"
     id="path883"
     style="opacity:1;fill:#ffb380;fill-opacity:1;stroke:none;stroke-width:0.16203831;stroke-miterlimit:4;stroke-dasharray:none;stroke-opacity:1" /></svg>